HIERARCHY
ROOT hip
{
  OFFSET 0 0 0
  CHANNELS 6 Xposition Yposition Zposition Zrotation Yrotation Xrotation
  JOINT abdomen
  {
    OFFSET 0 20.6881 -0.73152
    CHANNELS 3 Zrotation Xrotation Yrotation
    JOINT chest
    {
      OFFSET 0 11.7043 -0.48768
      CHANNELS 3 Zrotation Xrotation Yrotation
      JOINT neck
      {
        OFFSET 0 22.1894 -2.19456
        CHANNELS 3 Zrotation Xrotation Yrotation
        JOINT head
        {
          OFFSET -0.24384 7.07133 1.2192
          CHANNELS 3 Zrotation Xrotation Yrotation
          JOINT leftEye
          {
            OFFSET 4.14528 8.04674 8.04672
            CHANNELS 3 Zrotation Xrotation Yrotation
            End Site
            {
              OFFSET 1 0 0
            }
          }
          JOINT rightEye
          {
            OFFSET -3.6576 8.04674 8.04672
            CHANNELS 3 Zrotation Xrotation Yrotation
            End Site
            {
              OFFSET 1 0 0
            }
          }
        }
      }
      JOINT rCollar
      {
        OFFSET -2.68224 19.2634 -4.8768
        CHANNELS 3 Zrotation Xrotation Yrotation
        JOINT rShldr
        {
          OFFSET -8.77824 -1.95073 1.46304
          CHANNELS 3 Zrotation Xrotation Yrotation
          JOINT rForeArm
          {
            OFFSET -28.1742 -1.7115 0.48768
            CHANNELS 3 Zrotation Xrotation Yrotation
            JOINT rHand
            {
              OFFSET -22.5879 0.773209 7.07136
              CHANNELS 3 Zrotation Xrotation Yrotation
              JOINT rThumb1
              {
                OFFSET -1.2192 -0.487915 3.41376
                CHANNELS 3 Zrotation Xrotation Yrotation
                JOINT rThumb2
                {
                  OFFSET -3.37035 -0.52449 3.41376
                  CHANNELS 3 Zrotation Xrotation Yrotation
                  End Site
                  {
                    OFFSET -1.78271 -1.18214 1.43049
                  }
                }
              }
              JOINT rIndex1
              {
                OFFSET -7.75947 0.938293 5.60832
                CHANNELS 3 Zrotation Xrotation Yrotation
                JOINT rIndex2
                {
                  OFFSET -2.54057 -0.884171 1.56538
                  CHANNELS 3 Zrotation Xrotation Yrotation
                  End Site
                  {
                    OFFSET -1.62519 -0.234802 1.16502
                  }
                }
              }
              JOINT rMid1
              {
                OFFSET -8.24714 1.18213 3.41376
                CHANNELS 3 Zrotation Xrotation Yrotation
                JOINT rMid2
                {
                  OFFSET -3.10165 -0.590103 1.0647
                  CHANNELS 3 Zrotation Xrotation Yrotation
                  End Site
                  {
                    OFFSET -2.48547 -0.328903 0.83742
                  }
                }
              }
              JOINT rRing1
              {
                OFFSET -8.82822 0.546677 1.51678
                CHANNELS 3 Zrotation Xrotation Yrotation
                JOINT rRing2
                {
                  OFFSET -2.60934 -0.819778 -0.0198488
                  CHANNELS 3 Zrotation Xrotation Yrotation
                  End Site
                  {
                    OFFSET -2.33842 -0.294052 0.168128
                  }
                }
              }
              JOINT rPinky1
              {
                OFFSET -8.27202 -0.0477905 -0.4584
                CHANNELS 3 Zrotation Xrotation Yrotation
                JOINT rPinky2
                {
                  OFFSET -1.82734 -0.647385 -0.700984
                  CHANNELS 3 Zrotation Xrotation Yrotation
                  End Site
                  {
                    OFFSET -1.69225 -0.51767 -0.607171
                  }
                }
              }
            }
          }
        }
      }
      JOINT lCollar
      {
        OFFSET 2.68224 19.2634 -4.8768
        CHANNELS 3 Zrotation Xrotation Yrotation
        JOINT lShldr
        {
          OFFSET 8.77824 -1.95073 1.46304
          CHANNELS 3 Zrotation Xrotation Yrotation
          JOINT lForeArm
          {
            OFFSET 28.1742 -1.7115 0.48768
            CHANNELS 3 Zrotation Xrotation Yrotation
            JOINT lHand
            {
              OFFSET 22.5879 0.773209 7.07136
              CHANNELS 3 Zrotation Xrotation Yrotation
              JOINT lThumb1
              {
                OFFSET 1.2192 -0.487915 3.41376
                CHANNELS 3 Zrotation Xrotation Yrotation
                JOINT lThumb2
                {
                  OFFSET 3.37035 -0.52449 3.41376
                  CHANNELS 3 Zrotation Xrotation Yrotation
                  End Site
                  {
                    OFFSET 1.78271 -1.18214 1.43049
                  }
                }
              }
              JOINT lIndex1
              {
                OFFSET 7.75947 0.938293 5.60832
                CHANNELS 3 Zrotation Xrotation Yrotation
                JOINT lIndex2
                {
                  OFFSET 2.54057 -0.884171 1.56538
                  CHANNELS 3 Zrotation Xrotation Yrotation
                  End Site
                  {
                    OFFSET 1.62519 -0.234802 1.16502
                  }
                }
              }
              JOINT lMid1
              {
                OFFSET 8.24714 1.18213 3.41376
                CHANNELS 3 Zrotation Xrotation Yrotation
                JOINT lMid2
                {
                  OFFSET 3.10165 -0.590103 1.0647
                  CHANNELS 3 Zrotation Xrotation Yrotation
                  End Site
                  {
                    OFFSET 2.48547 -0.328903 0.83742
                  }
                }
              }
              JOINT lRing1
              {
                OFFSET 8.82822 0.546677 1.51678
                CHANNELS 3 Zrotation Xrotation Yrotation
                JOINT lRing2
                {
                  OFFSET 2.60934 -0.819778 -0.0198488
                  CHANNELS 3 Zrotation Xrotation Yrotation
                  End Site
                  {
                    OFFSET 2.33842 -0.294052 0.168128
                  }
                }
              }
              JOINT lPinky1
              {
                OFFSET 8.27202 -0.0477905 -0.4584
                CHANNELS 3 Zrotation Xrotation Yrotation
                JOINT lPinky2
                {
                  OFFSET 1.82734 -0.647385 -0.700984
                  CHANNELS 3 Zrotation Xrotation Yrotation
                  End Site
                  {
                    OFFSET 1.69225 -0.51767 -0.607171
                  }
                }
              }
            }
          }
        }
      }
    }
  }
  JOINT rButtock
  {
    OFFSET -8.77824 4.35084 1.2192
    CHANNELS 3 Zrotation Xrotation Yrotation
    JOINT rThigh
    {
      OFFSET 0 -1.70687 -2.19456
      CHANNELS 3 Zrotation Xrotation Yrotation
      JOINT rShin
      {
        OFFSET 0 -36.8199 0.73152
        CHANNELS 3 Zrotation Xrotation Yrotation
        JOINT rFoot
        {
          OFFSET 0.73152 -45.1104 -5.12064
          CHANNELS 3 Zrotation Xrotation Yrotation
          End Site
          {
            OFFSET -1.1221 -3.69964 12.103
          }
        }
      }
    }
  }
  JOINT lButtock
  {
    OFFSET 8.77824 4.35084 1.2192
    CHANNELS 3 Zrotation Xrotation Yrotation
    JOINT lThigh
    {
      OFFSET 0 -1.70687 -2.19456
      CHANNELS 3 Zrotation Xrotation Yrotation
      JOINT lShin
      {
        OFFSET 0 -36.8199 0.73152
        CHANNELS 3 Zrotation Xrotation Yrotation
        JOINT lFoot
        {
          OFFSET -0.73152 -45.1104 -5.12064
          CHANNELS 3 Zrotation Xrotation Yrotation
          End Site
          {
            OFFSET 1.1221 -3.69964 12.103
          }
        }
      }
    }
  }
}
MOTION
Frames:	9
Frame Time:	0.00833333
-3.36636 84.2564 36.9745 0.0 0.0 0.0 -1.24151 -0.00398119 -0.0340788 -0.342494 -0.00249265 -0.0593272 1.03845e-14 0.0 1.2424e-17 3.09607e-14 3.18055e-15 -3.10601e-18 -0.0 0.0 0.0 -0.0 0.0 0.0 5.26686e-15 3.72721e-17 9.93923e-17 1.10514e-13 8.26199e-16 1.59028e-15 1.87757e-12 -5.33339e-13 -3.18055e-14 2.14494e-11 7.02207e-13 6.67917e-14 5.06002e-11 3.60345e-13 7.31528e-14 8.7377e-11 6.23389e-13 1.27222e-13 5.06062e-11 3.62981e-13 6.67917e-14 7.73091 5.47488 0.417314 5.0599e-11 3.59999e-13 8.26944e-14 2.90554 0.965183 0.102902 5.0607e-11 3.60397e-13 7.4743e-14 10.2786 0.731801 0.0259123 5.05947e-11 3.61788e-13 8.5875e-14 2.22167 -0.733487 -0.20892 5.16968e-15 3.84369e-17 -1.49089e-16 1.06625e-13 9.38015e-16 -3.97569e-16 1.86992e-12 5.89595e-13 6.36111e-15 2.14504e-11 -4.13571e-13 3.18055e-14 5.05932e-11 3.7722e-13 6.36111e-14 8.7379e-11 6.42472e-13 1.24837e-13 5.05883e-11 3.77691e-13 7.63333e-14 -7.73091 5.47488 -0.417314 5.0593e-11 3.77591e-13 6.99722e-14 -2.90554 0.965183 -0.102902 5.05886e-11 3.77194e-13 6.91771e-14 -10.2786 0.731801 -0.0259123 5.05915e-11 3.78088e-13 6.04305e-14 -2.22167 -0.733487 0.20892 -2.03217e-16 0.0 -3.88251e-19 -0.453835 -1.92099 -0.0095272 -0.00915564 -2.07857 -0.0755525 -0.487458 3.99699 0.136653 2.03217e-16 0.0 3.88251e-19 -1.43728 -5.97115 0.129662 -0.00126422 5.25795 -0.0454137 0.507821 0.710745 -0.0722747
-3.94429 84.0363 35.8883 -1.4517 -2.5099 1.3563 -1.15153 -0.246777 0.744687 -0.169254 -0.99633 0.176482 -0.141429 1.24065 -0.625249 1.42394 -0.128476 -1.20573 -0.0 0.0 0.0 -0.0 0.0 0.0 -1.24994e-14 -1.22967e-14 7.90907e-15 23.1448 7.91236 -4.36858 -6.47613 -3.5941 9.3076 0.0531629 5.1183 0.709003 1.68221e-10 -1.87919e-10 7.98174e-11 2.9154e-10 -3.23547e-10 1.35495e-10 1.68227e-10 -1.87918e-10 7.98112e-11 7.73091 5.47488 0.417314 1.6822e-10 -1.8792e-10 7.98246e-11 2.90554 0.965183 0.102902 1.68227e-10 -1.87919e-10 7.98198e-11 10.2786 0.731801 0.0259123 1.68215e-10 -1.87917e-10 7.98293e-11 2.22167 -0.733487 -0.20892 -1.26154e-14 -1.22978e-14 7.63108e-15 -23.3513 7.88697 2.76451 5.63383 -2.92286 -8.36957 -0.0322513 3.98679 -0.555423 1.50977e-10 1.44458e-10 1.04309e-10 2.62228e-10 2.49713e-10 1.78894e-10 1.50971e-10 1.44457e-10 1.04321e-10 -7.73091 5.47488 -0.417314 1.50976e-10 1.44457e-10 1.04317e-10 -2.90554 0.965183 -0.102902 1.50972e-10 1.44457e-10 1.04314e-10 -10.2786 0.731801 -0.0259123 1.50978e-10 1.4446e-10 1.04308e-10 -2.22167 -0.733487 0.20892 -2.03217e-16 0.0 -3.88251e-19 -2.03864 -0.428421 0.0547309 -0.0060365 -1.63937 -0.0533597 -0.484413 -0.159109 -2.09867 2.03217e-16 0.0 3.88251e-19 0.860723 -6.54548 -2.10091 -0.014065 9.44295 -0.166379 0.958687 -4.60732 4.31678
-3.93866 84.0383 35.8918 -1.4299 -2.4914 1.3423 -1.04786 -0.502672 1.5676 0.0226876 -2.04751 0.425877 -0.262612 2.54878 -1.29168 2.92478 -0.259685 -2.48922 -0.0 0.0 0.0 -0.0 0.0 0.0 -3.21842e-14 -2.6619e-14 1.72725e-14 48.967 16.1227 -9.26839 -12.0684 -7.07725 19.262 -0.0305079 10.5266 1.4776 2.94302e-10 -3.91938e-10 1.67868e-10 5.10391e-10 -6.74844e-10 2.85051e-10 2.94309e-10 -3.91938e-10 1.67862e-10 7.73091 5.47488 0.417314 2.94301e-10 -3.9194e-10 1.67873e-10 2.90554 0.965183 0.102902 2.94308e-10 -3.9194e-10 1.67872e-10 10.2786 0.731801 0.0259123 2.94296e-10 -3.91937e-10 1.67879e-10 2.22167 -0.733487 -0.20892 -3.23204e-14 -2.66226e-14 1.69619e-14 -48.8961 16.1491 5.86342 10.6697 -5.80363 -17.2843 0.0185597 8.21257 -1.15334 2.67639e-10 3.07714e-10 2.19284e-10 4.65369e-10 5.31892e-10 3.75983e-10 2.67632e-10 3.07712e-10 2.19295e-10 -7.73091 5.47488 -0.417314 2.67639e-10 3.07712e-10 2.19293e-10 -2.90554 0.965183 -0.102902 2.67635e-10 3.07712e-10 2.19289e-10 -10.2786 0.731801 -0.0259123 2.67643e-10 3.07718e-10 2.19285e-10 -2.22167 -0.733487 0.20892 -2.03217e-16 0.0 -3.88251e-19 -3.71652 1.15016 0.122656 -0.00310942 -1.17502 -0.0299155 -0.834067 -4.53936 -4.47455 2.03217e-16 0.0 3.88251e-19 3.24237 -7.13973 -4.46429 -0.00781636 13.8675 -0.298534 2.32967 -10.1308 9.0685
-3.9352 84.0386 35.8933 -1.4182 -2.476 1.338 -0.951771 -0.73184 2.30239 0.201792 -2.98383 0.648901 -0.342924 3.72017 -1.87927 4.25561 -0.384745 -3.61727 -0.0 0.0 0.0 -0.0 0.0 0.0 -4.80319e-14 -3.69648e-14 2.35284e-14 73.2862 23.161 -14.1413 -16.0385 -9.6458 28.3027 -0.232386 15.3453 2.19689 4.03462e-10 -5.64476e-10 2.39306e-10 6.99865e-10 -9.71888e-10 4.06232e-10 4.0347e-10 -5.64479e-10 2.393e-10 7.73091 5.47488 0.417314 4.03462e-10 -5.6448e-10 2.39308e-10 2.90554 0.965183 0.102902 4.03468e-10 -5.64479e-10 2.3931e-10 10.2786 0.731801 0.0259123 4.03456e-10 -5.64476e-10 2.39316e-10 2.22167 -0.733487 -0.20892 -4.81857e-14 -3.69702e-14 2.31914e-14 -72.5021 23.4305 8.95909 14.41 -8.02169 -25.341 0.139474 11.9558 -1.6991 3.51743e-10 4.3262e-10 3.12801e-10 6.11927e-10 7.47853e-10 5.36432e-10 3.51737e-10 4.32616e-10 3.12811e-10 -7.73091 5.47488 -0.417314 3.51743e-10 4.32616e-10 3.12811e-10 -2.90554 0.965183 -0.102902 3.5174e-10 4.32617e-10 3.12805e-10 -10.2786 0.731801 -0.0259123 3.51751e-10 4.32625e-10 3.12804e-10 -2.22167 -0.733487 0.20892 -2.03217e-16 0.0 -3.88251e-19 -5.21829 2.55669 0.183414 -0.000818798 -0.760975 -0.00900879 -1.45601 -8.41563 -6.64045 2.03217e-16 0.0 3.88251e-19 5.32214 -7.65707 -6.57847 0.0159099 17.8126 -0.422165 4.35137 -14.8785 13.5142
-3.93356 84.0373 35.8835 -1.4125 -2.4692 1.349 -0.888498 -0.894693 2.81672 0.331448 -3.63318 0.805222 -0.379162 4.55145 -2.26635 5.17219 -0.495051 -4.35667 -0.0 0.0 0.0 -0.0 0.0 0.0 -5.42869e-14 -3.73692e-14 2.20154e-14 91.0439 27.8162 -17.9592 -18.3 -11.0128 34.6965 -0.448991 18.6993 2.72651 4.70321e-10 -6.58314e-10 2.69212e-10 8.15896e-10 -1.1333e-09 4.56477e-10 4.70329e-10 -6.58317e-10 2.69205e-10 7.73091 5.47488 0.417314 4.70321e-10 -6.58318e-10 2.69212e-10 2.90554 0.965183 0.102902 4.70327e-10 -6.58318e-10 2.69216e-10 10.2786 0.731801 0.0259123 4.70315e-10 -6.58314e-10 2.69221e-10 2.22167 -0.733487 -0.20892 -5.44519e-14 -3.73746e-14 2.16675e-14 -89.4896 28.4762 11.423 16.6379 -9.29367 -31.0312 0.264907 14.4972 -2.08252 3.54454e-10 4.61648e-10 3.52673e-10 6.17029e-10 7.98272e-10 6.05283e-10 3.54447e-10 4.61644e-10 3.52682e-10 -7.73091 5.47488 -0.417314 3.54454e-10 4.61644e-10 3.52682e-10 -2.90554 0.965183 -0.102902 3.5445e-10 4.61645e-10 3.52676e-10 -10.2786 0.731801 -0.0259123 3.54464e-10 4.61654e-10 3.52676e-10 -2.22167 -0.733487 0.20892 -2.03217e-16 0.0 -3.88251e-19 -6.27272 3.53313 0.226006 0.000600699 -0.472718 0.00557501 -2.06767 -11.0898 -8.19666 2.03217e-16 0.0 3.88251e-19 6.74169 -8.01085 -8.05754 0.0432837 20.5592 -0.51264 6.22541 -18.0369 16.7871
-3.93128 84.0365 35.8755 -1.4005 -2.464 1.3544 -0.882185 -0.967318 3.02205 0.383917 -3.88028 0.867533 -0.371333 4.91816 -2.36222 5.50667 -0.599167 -4.53676 -0.0 0.0 0.0 -0.0 0.0 0.0 -4.46738e-14 -2.15919e-14 8.54153e-15 98.1938 29.5544 -19.5721 -19.0837 -11.4335 37.2102 -0.551615 20.0075 2.94127 4.67923e-10 -6.216e-10 2.27546e-10 8.11651e-10 -1.06966e-09 3.84367e-10 4.67931e-10 -6.21602e-10 2.27539e-10 7.73091 5.47488 0.417314 4.67922e-10 -6.21604e-10 2.27543e-10 2.90554 0.965183 0.102902 4.67928e-10 -6.21604e-10 2.27549e-10 10.2786 0.731801 0.0259123 4.67916e-10 -6.21601e-10 2.27555e-10 2.22167 -0.733487 -0.20892 -4.4844e-14 -2.1594e-14 8.20569e-15 -96.2841 30.6089 12.5284 17.4435 -9.72884 -33.2996 0.315951 15.3154 -2.20921 2.11088e-10 3.1536e-10 3.015e-10 3.68352e-10 5.46007e-10 5.18776e-10 2.11081e-10 3.15355e-10 3.0151e-10 -7.73091 5.47488 -0.417314 2.11087e-10 3.15355e-10 3.01508e-10 -2.90554 0.965183 -0.102902 2.11082e-10 3.15356e-10 3.01502e-10 -10.2786 0.731801 -0.0259123 2.111e-10 3.15365e-10 3.01502e-10 -2.22167 -0.733487 0.20892 -2.03217e-16 0.0 -3.88251e-19 -6.70204 3.90684 0.242184 0.00112079 -0.360848 0.0113228 -2.35046 -12.125 -8.82922 2.03217e-16 0.0 3.88251e-19 7.27376 -8.15066 -8.64308 0.05668 21.6258 -0.548998 7.07443 -19.226 18.1389
-3.92903 84.037 35.8688 -1.3877 -2.4726 1.3528 -0.917809 -0.975494 3.00664 0.379472 -3.84014 0.862538 -0.338233 4.95284 -2.24978 5.42777 -0.698381 -4.31805 -0.0 0.0 0.0 -0.0 0.0 0.0 -2.38426e-14 5.63601e-15 -1.34242e-14 97.4002 29.3411 -19.3921 -18.9949 -11.3853 36.92 -0.539376 19.8566 2.91627 4.16533e-10 -4.92604e-10 1.35398e-10 7.22325e-10 -8.46933e-10 2.25956e-10 4.16541e-10 -4.92605e-10 1.35389e-10 7.73091 5.47488 0.417314 4.16532e-10 -4.92607e-10 1.35391e-10 2.90554 0.965183 0.102902 4.16537e-10 -4.92608e-10 1.35398e-10 10.2786 0.731801 0.0259123 4.16526e-10 -4.92607e-10 1.35406e-10 2.22167 -0.733487 -0.20892 -2.40133e-14 5.63954e-15 -1.37317e-14 -95.5397 30.7142 12.5018 17.3786 -9.70477 -33.0985 0.296772 14.9057 -2.14677 -3.50883e-11 4.58025e-11 1.86054e-10 -5.89414e-11 8.09171e-11 3.2259e-10 -3.50943e-11 4.57962e-11 1.86066e-10 -7.73091 5.47488 -0.417314 -3.50898e-11 4.57972e-11 1.86061e-10 -2.90554 0.965183 -0.102902 -3.50964e-11 4.57971e-11 1.86056e-10 -10.2786 0.731801 -0.0259123 -3.5074e-11 4.58066e-11 1.86056e-10 -2.22167 -0.733487 0.20892 -2.03217e-16 0.0 -3.88251e-19 -6.68391 3.85006 0.239456 0.00107243 -0.374955 0.0107593 -2.3228 -12.0033 -8.7795 2.03217e-16 0.0 3.88251e-19 7.18174 -8.14161 -8.58889 0.0553682 21.4926 -0.544512 6.99387 -19.0858 18.0364
-3.92392 84.0364 35.8594 -1.3632 -2.4784 1.3657 -0.962511 -0.954273 2.90335 0.352665 -3.68607 0.830743 -0.307749 4.83806 -2.06709 5.1959 -0.773262 -3.96407 -0.0 0.0 0.0 -0.0 0.0 0.0 -2.42502e-15 3.38219e-14 -3.70516e-14 93.4284 28.3494 -18.4952 -18.5568 -11.1492 35.5099 -0.481484 19.1248 2.79587 3.61604e-10 -3.5929e-10 4.45385e-11 6.26896e-10 -6.16856e-10 6.99005e-11 3.61612e-10 -3.59289e-10 4.45278e-11 7.73091 5.47488 0.417314 3.61601e-10 -3.59291e-10 4.45291e-11 2.90554 0.965183 0.102902 3.61607e-10 -3.59294e-10 4.45362e-11 10.2786 0.731801 0.0259123 3.61595e-10 -3.59294e-10 4.45459e-11 2.22167 -0.733487 -0.20892 -2.59023e-15 3.38308e-14 -3.73261e-14 -91.7636 29.9343 11.9927 16.962 -9.49343 -31.8982 0.254899 14.0746 -2.02017 -2.70989e-10 -2.07321e-10 7.04054e-11 -4.68496e-10 -3.55827e-10 1.25926e-10 -2.70994e-10 -2.07328e-10 7.04178e-11 -7.73091 5.47488 -0.417314 -2.70991e-10 -2.07327e-10 7.04106e-11 -2.90554 0.965183 -0.102902 -2.70999e-10 -2.07327e-10 7.04058e-11 -10.2786 0.731801 -0.0259123 -2.70973e-10 -2.07319e-10 7.04048e-11 -2.22167 -0.733487 0.20892 -2.03217e-16 0.0 -3.88251e-19 -6.47988 3.62207 0.230358 0.000794593 -0.438992 0.00765413 -2.16982 -11.4203 -8.45354 2.03217e-16 0.0 3.88251e-19 6.84753 -8.07341 -8.2765 0.0481014 20.8832 -0.523812 6.53745 -18.4154 17.3432
-3.91881 84.035 35.8506 -1.3407 -2.4749 1.3787 -0.983202 -0.938695 2.84506 0.338115 -3.59142 0.812658 -0.308058 4.75645 -1.95223 5.06933 -0.804252 -3.73841 -0.0 0.0 0.0 -0.0 0.0 0.0 8.94704e-15 5.24731e-14 -5.55106e-14 91.0589 27.7461 -17.9667 -18.2859 -10.9974 34.6647 -0.448544 18.6904 2.72511 3.48586e-10 -3.09621e-10 6.7396e-12 6.04341e-10 -5.31156e-10 4.85353e-12 3.48594e-10 -3.09617e-10 6.72687e-12 7.73091 5.47488 0.417314 3.48584e-10 -3.09622e-10 6.73005e-12 2.90554 0.965183 0.102902 3.48589e-10 -3.09623e-10 6.73562e-12 10.2786 0.731801 0.0259123 3.48578e-10 -3.09623e-10 6.74596e-12 2.22167 -0.733487 -0.20892 8.79501e-15 5.24846e-14 -5.57591e-14 -89.5024 29.4034 11.6776 16.7028 -9.35691 -31.1707 0.233358 13.6284 -1.95269 -3.83527e-10 -3.04309e-10 1.86221e-11 -6.63955e-10 -5.23055e-10 3.79877e-11 -3.83532e-10 -3.04315e-10 1.86349e-11 -7.73091 5.47488 -0.417314 -3.83529e-10 -3.04314e-10 1.86253e-11 -2.90554 0.965183 -0.102902 -3.83539e-10 -3.04315e-10 1.86214e-11 -10.2786 0.731801 -0.0259123 -3.83511e-10 -3.04307e-10 1.8619e-11 -2.22167 -0.733487 0.20892 -2.03217e-16 0.0 -3.88251e-19 -6.35149 3.48212 0.227424 0.000623016 -0.476916 0.00577679 -2.08083 -11.0711 -8.25855 2.03217e-16 0.0 3.88251e-19 6.65237 -8.03554 -8.08754 0.0437996 20.5209 -0.511605 6.27023 -18.0087 16.9268
